<svg xmlns="http://www.w3.org/2000/svg" xmlns:xlink="http://www.w3.org/1999/xlink" viewBox="0 0 48 48" width="48px" height="48px" fill-rule="evenodd"><defs><linearGradient id="Ci2Qxa6DtmVe1jz96f9FFr" x1="23.89" x2="24.09" y1="40.21" y2="10.82" gradientUnits="userSpaceOnUse"><stop offset="0" stop-color="#fffefc"/><stop offset=".18" stop-color="#fffdf9"/><stop offset=".36" stop-color="#fff9f7"/><stop offset=".55" stop-color="#fff5f9"/><stop offset=".71" stop-color="#fdf6f9"/><stop offset=".86" stop-color="#f9f5fe"/><stop offset="1" stop-color="#f8f7ff"/></linearGradient><linearGradient id="Ci2Qxa6DtmVe1jz96f9FFs" x1="23.89" x2="24.09" y1="40.22" y2="10.81" gradientUnits="userSpaceOnUse"><stop offset="0" stop-color="#fffefa"/><stop offset=".18" stop-color="#fffcf5"/><stop offset=".36" stop-color="#fff5f2"/><stop offset=".55" stop-color="#ffeff5"/><stop offset=".71" stop-color="#fcf1f5"/><stop offset=".86" stop-color="#f6effd"/><stop offset="1" stop-color="#f4f2ff"/></linearGradient><linearGradient id="Ci2Qxa6DtmVe1jz96f9FFt" x1="23.89" x2="24.09" y1="40.22" y2="10.81" gradientUnits="userSpaceOnUse"><stop offset="0" stop-color="#fffdf9"/><stop offset=".18" stop-color="#fffbf1"/><stop offset=".36" stop-color="#fff2ed"/><stop offset=".55" stop-color="#feeaf2"/><stop offset=".71" stop-color="#faecf2"/><stop offset=".86" stop-color="#f2eafd"/><stop offset="1" stop-color="#f0eefe"/></linearGradient><linearGradient id="Ci2Qxa6DtmVe1jz96f9FFu" x1="23.89" x2="24.09" y1="40.22" y2="10.81" gradientUnits="userSpaceOnUse"><stop offset="0" stop-color="#fffdf7"/><stop offset=".18" stop-color="#fffbee"/><stop offset=".36" stop-color="#ffeee9"/><stop offset=".55" stop-color="#fee5ee"/><stop offset=".71" stop-color="#f9e7ef"/><stop offset=".86" stop-color="#efe5fd"/><stop offset="1" stop-color="#ede9fe"/></linearGradient><linearGradient id="Ci2Qxa6DtmVe1jz96f9FFv" x1="23.89" x2="24.09" y1="40.22" y2="10.81" gradientUnits="userSpaceOnUse"><stop offset="0" stop-color="#fffdf5"/><stop offset=".18" stop-color="#fffaea"/><stop offset=".36" stop-color="#ffeae4"/><stop offset=".55" stop-color="#fedfea"/><stop offset=".71" stop-color="#f8e2eb"/><stop offset=".86" stop-color="#ecdffc"/><stop offset="1" stop-color="#e9e4fe"/></linearGradient><linearGradient id="Ci2Qxa6DtmVe1jz96f9FFw" x1="23.89" x2="24.09" y1="40.22" y2="10.81" gradientUnits="userSpaceOnUse"><stop offset="0" stop-color="#fffcf4"/><stop offset=".18" stop-color="#fff9e6"/><stop offset=".36" stop-color="#ffe7df"/><stop offset=".55" stop-color="#fddae7"/><stop offset=".71" stop-color="#f6dde8"/><stop offset=".86" stop-color="#e8dafc"/><stop offset="1" stop-color="#e5e0fd"/></linearGradient><linearGradient id="Ci2Qxa6DtmVe1jz96f9FFa" x1="23.89" x2="24.09" y1="40.21" y2="10.82" gradientUnits="userSpaceOnUse"><stop offset="0" stop-color="#fffcf2"/><stop offset=".18" stop-color="#fff8e2"/><stop offset=".36" stop-color="#ffe3da"/><stop offset=".55" stop-color="#fdd4e3"/><stop offset=".71" stop-color="#f5d8e4"/><stop offset=".86" stop-color="#e5d4fb"/><stop offset="1" stop-color="#e1dbfd"/></linearGradient><linearGradient id="Ci2Qxa6DtmVe1jz96f9FFb" x1="23.89" x2="24.15" y1="33.31" y2="11.98" gradientUnits="userSpaceOnUse"><stop offset="0" stop-color="#fffffe"/><stop offset=".18" stop-color="#fffefc"/><stop offset=".36" stop-color="#fffcfb"/><stop offset=".55" stop-color="#fffafc"/><stop offset=".71" stop-color="#fefbfc"/><stop offset=".86" stop-color="#fcfaff"/><stop offset="1" stop-color="#fcfbff"/></linearGradient><linearGradient id="Ci2Qxa6DtmVe1jz96f9FFc" x1="23.89" x2="24.15" y1="33.32" y2="11.97" gradientUnits="userSpaceOnUse"><stop offset="0" stop-color="#fffefc"/><stop offset=".18" stop-color="#fffdf8"/><stop offset=".36" stop-color="#fff8f5"/><stop offset=".55" stop-color="#fff4f8"/><stop offset=".71" stop-color="#fcf5f8"/><stop offset=".86" stop-color="#f8f4fe"/><stop offset="1" stop-color="#f7f6ff"/></linearGradient><linearGradient id="Ci2Qxa6DtmVe1jz96f9FFd" x1="23.89" x2="24.15" y1="33.33" y2="11.96" gradientUnits="userSpaceOnUse"><stop offset="0" stop-color="#fffefa"/><stop offset=".18" stop-color="#fffcf3"/><stop offset=".36" stop-color="#fff4f0"/><stop offset=".55" stop-color="#feedf4"/><stop offset=".71" stop-color="#fbeff4"/><stop offset=".86" stop-color="#f4edfe"/><stop offset="1" stop-color="#f3f0fe"/></linearGradient><linearGradient id="Ci2Qxa6DtmVe1jz96f9FFe" x1="23.89" x2="24.15" y1="33.33" y2="11.96" gradientUnits="userSpaceOnUse"><stop offset="0" stop-color="#fffef8"/><stop offset=".18" stop-color="#fffbef"/><stop offset=".36" stop-color="#fff0eb"/><stop offset=".55" stop-color="#fee7f0"/><stop offset=".71" stop-color="#faeaf0"/><stop offset=".86" stop-color="#f1e7fd"/><stop offset="1" stop-color="#efebfe"/></linearGradient><linearGradient id="Ci2Qxa6DtmVe1jz96f9FFf" x1="23.89" x2="24.15" y1="33.33" y2="11.96" gradientUnits="userSpaceOnUse"><stop offset="0" stop-color="#fffdf6"/><stop offset=".18" stop-color="#fffaeb"/><stop offset=".36" stop-color="#ffebe5"/><stop offset=".55" stop-color="#fee1eb"/><stop offset=".71" stop-color="#f8e4ec"/><stop offset=".86" stop-color="#ede1fc"/><stop offset="1" stop-color="#eae6fe"/></linearGradient><linearGradient id="Ci2Qxa6DtmVe1jz96f9FFg" x1="23.89" x2="24.15" y1="33.32" y2="11.97" gradientUnits="userSpaceOnUse"><stop offset="0" stop-color="#fffdf4"/><stop offset=".18" stop-color="#fff9e6"/><stop offset=".36" stop-color="#ffe7e0"/><stop offset=".55" stop-color="#fddae7"/><stop offset=".71" stop-color="#f7dee8"/><stop offset=".86" stop-color="#e9dafc"/><stop offset="1" stop-color="#e6e0fd"/></linearGradient><linearGradient id="Ci2Qxa6DtmVe1jz96f9FFx" x1="23.89" x2="24.15" y1="33.31" y2="11.98" xlink:href="#Ci2Qxa6DtmVe1jz96f9FFa"/><linearGradient id="Ci2Qxa6DtmVe1jz96f9FFy" x1="30.99" x2="31.01" y1="15.24" y2="16.85" xlink:href="#Ci2Qxa6DtmVe1jz96f9FFb"/><linearGradient id="Ci2Qxa6DtmVe1jz96f9FFz" x1="30.99" x2="31.01" y1="15.14" y2="16.96" xlink:href="#Ci2Qxa6DtmVe1jz96f9FFc"/><linearGradient id="Ci2Qxa6DtmVe1jz96f9FFA" x1="30.99" x2="31.01" y1="15.08" y2="17.02" xlink:href="#Ci2Qxa6DtmVe1jz96f9FFd"/><linearGradient id="Ci2Qxa6DtmVe1jz96f9FFB" x1="30.99" x2="31.01" y1="15.06" y2="17.05" xlink:href="#Ci2Qxa6DtmVe1jz96f9FFe"/><linearGradient id="Ci2Qxa6DtmVe1jz96f9FFC" x1="30.99" x2="31.01" y1="15.08" y2="17.02" xlink:href="#Ci2Qxa6DtmVe1jz96f9FFf"/><linearGradient id="Ci2Qxa6DtmVe1jz96f9FFD" x1="30.99" x2="31.01" y1="15.14" y2="16.96" xlink:href="#Ci2Qxa6DtmVe1jz96f9FFg"/><linearGradient id="Ci2Qxa6DtmVe1jz96f9FFE" x1="30.99" x2="31.01" y1="15.24" y2="16.85" xlink:href="#Ci2Qxa6DtmVe1jz96f9FFa"/><radialGradient id="Ci2Qxa6DtmVe1jz96f9FFh" cx="21.95" cy="38.67" r="35.34" fx="21.95" fy="38.67" gradientUnits="userSpaceOnUse"><stop offset="0" stop-color="#fff9e6"/><stop offset=".18" stop-color="#fff1c4"/><stop offset=".36" stop-color="#ffc7b5"/><stop offset=".55" stop-color="#fcaac7"/><stop offset=".71" stop-color="#ebb2c8"/><stop offset=".86" stop-color="#cbaaf8"/><stop offset="1" stop-color="#c2b7fb"/></radialGradient><radialGradient id="Ci2Qxa6DtmVe1jz96f9FFi" cx="21.85" cy="38.79" r="35.63" fx="21.85" fy="38.79" gradientUnits="userSpaceOnUse"><stop offset="0" stop-color="#fff8e0"/><stop offset=".18" stop-color="#ffeeb7"/><stop offset=".36" stop-color="#ffbba5"/><stop offset=".55" stop-color="#fb97bb"/><stop offset=".71" stop-color="#e6a1bc"/><stop offset=".86" stop-color="#bf97f6"/><stop offset="1" stop-color="#b5a7fa"/></radialGradient><radialGradient id="Ci2Qxa6DtmVe1jz96f9FFj" cx="21.76" cy="38.88" r="35.9" fx="21.76" fy="38.88" gradientUnits="userSpaceOnUse"><stop offset="0" stop-color="#fff6db"/><stop offset=".18" stop-color="#ffebaa"/><stop offset=".36" stop-color="#ffae94"/><stop offset=".55" stop-color="#fa84ae"/><stop offset=".71" stop-color="#e290b0"/><stop offset=".86" stop-color="#b484f5"/><stop offset="1" stop-color="#a797f9"/></radialGradient><radialGradient id="Ci2Qxa6DtmVe1jz96f9FFk" cx="21.67" cy="38.97" r="36.16" fx="21.67" fy="38.97" gradientUnits="userSpaceOnUse"><stop offset="0" stop-color="#fff5d5"/><stop offset=".18" stop-color="#ffe89d"/><stop offset=".36" stop-color="#ffa284"/><stop offset=".55" stop-color="#fa71a2"/><stop offset=".71" stop-color="#dd7fa4"/><stop offset=".86" stop-color="#a871f3"/><stop offset="1" stop-color="#9a87f9"/></radialGradient><radialGradient id="Ci2Qxa6DtmVe1jz96f9FFl" cx="21.59" cy="39.04" r="36.4" fx="21.59" fy="39.04" gradientUnits="userSpaceOnUse"><stop offset="0" stop-color="#fff3cf"/><stop offset=".18" stop-color="#ffe590"/><stop offset=".36" stop-color="#ff9574"/><stop offset=".55" stop-color="#f95e95"/><stop offset=".71" stop-color="#d96e98"/><stop offset=".86" stop-color="#9c5ef2"/><stop offset="1" stop-color="#8c77f8"/></radialGradient><radialGradient id="Ci2Qxa6DtmVe1jz96f9FFm" cx="21.51" cy="39.09" r="36.62" fx="21.51" fy="39.09" gradientUnits="userSpaceOnUse"><stop offset="0" stop-color="#fff2ca"/><stop offset=".18" stop-color="#ffe183"/><stop offset=".36" stop-color="#ff8963"/><stop offset=".55" stop-color="#f84c89"/><stop offset=".71" stop-color="#d45c8b"/><stop offset=".86" stop-color="#914cf0"/><stop offset="1" stop-color="#7f68f7"/></radialGradient><radialGradient id="Ci2Qxa6DtmVe1jz96f9FFn" cx="21.44" cy="39.13" r="36.83" fx="21.44" fy="39.13" gradientUnits="userSpaceOnUse"><stop offset="0" stop-color="#fff0c4"/><stop offset=".18" stop-color="#ffde76"/><stop offset=".36" stop-color="#ff7c53"/><stop offset=".55" stop-color="#f7397c"/><stop offset=".71" stop-color="#d04b7f"/><stop offset=".86" stop-color="#8539ef"/><stop offset="1" stop-color="#7158f6"/></radialGradient><radialGradient id="Ci2Qxa6DtmVe1jz96f9FFo" cx="21.38" cy="39.16" r="37.02" fx="21.38" fy="39.16" gradientUnits="userSpaceOnUse"><stop offset="0" stop-color="#ffefbe"/><stop offset=".18" stop-color="#ffdb69"/><stop offset=".36" stop-color="#ff7043"/><stop offset=".55" stop-color="#f72670"/><stop offset=".71" stop-color="#cb3a73"/><stop offset=".86" stop-color="#7926ed"/><stop offset="1" stop-color="#6448f6"/></radialGradient><radialGradient id="Ci2Qxa6DtmVe1jz96f9FFp" cx="21.32" cy="39.17" r="37.19" fx="21.32" fy="39.17" gradientUnits="userSpaceOnUse"><stop offset="0" stop-color="#ffedb9"/><stop offset=".18" stop-color="#ffd85c"/><stop offset=".36" stop-color="#ff6332"/><stop offset=".55" stop-color="#f61363"/><stop offset=".71" stop-color="#c72967"/><stop offset=".86" stop-color="#6e13ec"/><stop offset="1" stop-color="#5638f5"/></radialGradient><radialGradient id="Ci2Qxa6DtmVe1jz96f9FFq" cx="21.26" cy="39.16" r="37.34" fx="21.26" fy="39.16" gradientUnits="userSpaceOnUse"><stop offset="0" stop-color="#ffecb3"/><stop offset=".18" stop-color="#ffd54f"/><stop offset=".36" stop-color="#ff5722"/><stop offset=".55" stop-color="#f50057"/><stop offset=".71" stop-color="#c2185b"/><stop offset=".86" stop-color="#6200ea"/><stop offset="1" stop-color="#4928f4"/></radialGradient></defs><path fill="url(#Ci2Qxa6DtmVe1jz96f9FFh)" fill-rule="evenodd" d="m31.37,42h-14.74c-5.87,0-10.63-4.76-10.63-10.63v-14.74c0-5.87,4.76-10.63,10.63-10.63h14.74c5.87,0,10.63,4.76,10.63,10.63v14.74c0,5.87-4.76,10.63-10.63,10.63Z"/><rect width="35.33" height="35.33" x="6.33" y="6.33" fill="url(#Ci2Qxa6DtmVe1jz96f9FFi)" rx="10.34" ry="10.34"/><rect width="34.67" height="34.67" x="6.67" y="6.67" fill="url(#Ci2Qxa6DtmVe1jz96f9FFj)" rx="10.05" ry="10.05"/><rect width="34" height="34" x="7" y="7" fill="url(#Ci2Qxa6DtmVe1jz96f9FFk)" rx="9.75" ry="9.75"/><rect width="33.33" height="33.33" x="7.33" y="7.33" fill="url(#Ci2Qxa6DtmVe1jz96f9FFl)" rx="9.46" ry="9.46"/><rect width="32.67" height="32.67" x="7.67" y="7.67" fill="url(#Ci2Qxa6DtmVe1jz96f9FFm)" rx="9.17" ry="9.17"/><rect width="32" height="32" x="8" y="8" fill="url(#Ci2Qxa6DtmVe1jz96f9FFn)" rx="8.88" ry="8.88"/><rect width="31.33" height="31.33" x="8.33" y="8.33" fill="url(#Ci2Qxa6DtmVe1jz96f9FFo)" rx="8.58" ry="8.58"/><rect width="30.67" height="30.67" x="8.67" y="8.67" fill="url(#Ci2Qxa6DtmVe1jz96f9FFp)" rx="8.29" ry="8.29"/><rect width="30" height="30" x="9" y="9" fill="url(#Ci2Qxa6DtmVe1jz96f9FFq)" rx="8" ry="8"/><g><path fill="url(#Ci2Qxa6DtmVe1jz96f9FFr)" d="m18,12c-3.36,0-6,2.64-6,6v12c0,3.36,2.64,6,6,6h12c3.36,0,6-2.64,6-6v-12c0-3.36-2.64-6-6-6h-12Zm12,26h-12c-4.49,0-8-3.51-8-8v-12c0-4.49,3.51-8,8-8h12c4.49,0,8,3.51,8,8v12c0,4.49-3.51,8-8,8Z"/><path fill="url(#Ci2Qxa6DtmVe1jz96f9FFs)" d="m18,11.9c-3.42,0-6.1,2.68-6.1,6.1v12c0,3.42,2.68,6.1,6.1,6.1h12c3.42,0,6.1-2.68,6.1-6.1v-12c0-3.42-2.68-6.1-6.1-6.1h-12Zm12,26h-12c-4.43,0-7.9-3.47-7.9-7.9v-12c0-4.43,3.47-7.9,7.9-7.9h12c4.43,0,7.9,3.47,7.9,7.9v12c0,4.43-3.47,7.9-7.9,7.9Z"/><path fill="url(#Ci2Qxa6DtmVe1jz96f9FFt)" d="m18,11.79c-3.48,0-6.21,2.73-6.21,6.21v12c0,3.48,2.73,6.21,6.21,6.21h12c3.48,0,6.21-2.73,6.21-6.21v-12c0-3.48-2.73-6.21-6.21-6.21h-12Zm12,26h-12c-4.37,0-7.79-3.42-7.79-7.79v-12c0-4.37,3.42-7.79,7.79-7.79h12c4.37,0,7.79,3.42,7.79,7.79v12c0,4.37-3.42,7.79-7.79,7.79Z"/><path fill="url(#Ci2Qxa6DtmVe1jz96f9FFu)" d="m18,11.69c-3.54,0-6.31,2.77-6.31,6.31v12c0,3.54,2.77,6.31,6.31,6.31h12c3.54,0,6.31-2.77,6.31-6.31v-12c0-3.54-2.77-6.31-6.31-6.31h-12Zm12,26h-12c-4.31,0-7.69-3.38-7.69-7.69v-12c0-4.31,3.38-7.69,7.69-7.69h12c4.31,0,7.69,3.38,7.69,7.69v12c0,4.31-3.38,7.69-7.69,7.69Z"/><path fill="url(#Ci2Qxa6DtmVe1jz96f9FFv)" d="m18,11.58c-3.6,0-6.42,2.82-6.42,6.42v12c0,3.6,2.82,6.42,6.42,6.42h12c3.6,0,6.42-2.82,6.42-6.42v-12c0-3.6-2.82-6.42-6.42-6.42h-12Zm12,26h-12c-4.25,0-7.58-3.33-7.58-7.58v-12c0-4.25,3.33-7.58,7.58-7.58h12c4.25,0,7.58,3.33,7.58,7.58v12c0,4.25-3.33,7.58-7.58,7.58Z"/><path fill="url(#Ci2Qxa6DtmVe1jz96f9FFw)" d="m18,11.48c-3.66,0-6.52,2.86-6.52,6.52v12c0,3.66,2.86,6.52,6.52,6.52h12c3.66,0,6.52-2.86,6.52-6.52v-12c0-3.66-2.86-6.52-6.52-6.52h-12Zm12,26h-12c-4.19,0-7.48-3.28-7.48-7.48v-12c0-4.19,3.29-7.48,7.48-7.48h12c4.19,0,7.48,3.28,7.48,7.48v12c0,4.19-3.29,7.48-7.48,7.48Z"/><path fill="url(#Ci2Qxa6DtmVe1jz96f9FFa)" d="m18,11.38c-3.71,0-6.62,2.91-6.62,6.62v12c0,3.71,2.91,6.62,6.62,6.62h12c3.71,0,6.62-2.91,6.62-6.62v-12c0-3.71-2.91-6.62-6.62-6.62h-12Zm12,26h-12c-4.14,0-7.38-3.24-7.38-7.38v-12c0-4.14,3.24-7.38,7.38-7.38h12c4.14,0,7.38,3.24,7.38,7.38v12c0,4.14-3.24,7.38-7.38,7.38Z"/></g><g><path fill="url(#Ci2Qxa6DtmVe1jz96f9FFb)" d="m24,19c-2.76,0-5,2.24-5,5s2.24,5,5,5,5-2.24,5-5-2.24-5-5-5Zm0,12c-3.86,0-7-3.14-7-7s3.14-7,7-7,7,3.14,7,7-3.14,7-7,7Z"/><path fill="url(#Ci2Qxa6DtmVe1jz96f9FFc)" d="m24,18.9c-2.81,0-5.1,2.29-5.1,5.1s2.29,5.1,5.1,5.1,5.1-2.29,5.1-5.1-2.29-5.1-5.1-5.1Zm0,12c-3.8,0-6.9-3.09-6.9-6.9s3.09-6.9,6.9-6.9,6.9,3.09,6.9,6.9-3.09,6.9-6.9,6.9Z"/><path fill="url(#Ci2Qxa6DtmVe1jz96f9FFd)" d="m24,18.79c-2.87,0-5.21,2.34-5.21,5.21s2.34,5.21,5.21,5.21,5.21-2.34,5.21-5.21-2.34-5.21-5.21-5.21Zm0,12c-3.74,0-6.79-3.05-6.79-6.79s3.05-6.79,6.79-6.79,6.79,3.05,6.79,6.79-3.05,6.79-6.79,6.79Z"/><path fill="url(#Ci2Qxa6DtmVe1jz96f9FFe)" d="m24,18.69c-2.93,0-5.31,2.38-5.31,5.31s2.38,5.31,5.31,5.31,5.31-2.38,5.31-5.31-2.38-5.31-5.31-5.31Zm0,12c-3.69,0-6.69-3-6.69-6.69s3-6.69,6.69-6.69,6.69,3,6.69,6.69-3,6.69-6.69,6.69Z"/><path fill="url(#Ci2Qxa6DtmVe1jz96f9FFf)" d="m24,18.58c-2.99,0-5.42,2.43-5.42,5.42s2.43,5.42,5.42,5.42,5.42-2.43,5.42-5.42-2.43-5.42-5.42-5.42Zm0,12c-3.63,0-6.58-2.95-6.58-6.58s2.95-6.58,6.58-6.58,6.58,2.95,6.58,6.58-2.95,6.58-6.58,6.58Z"/><path fill="url(#Ci2Qxa6DtmVe1jz96f9FFg)" d="m24,18.48c-3.04,0-5.52,2.48-5.52,5.52s2.48,5.52,5.52,5.52,5.52-2.48,5.52-5.52-2.48-5.52-5.52-5.52Zm0,12c-3.57,0-6.48-2.91-6.48-6.48s2.91-6.48,6.48-6.48,6.48,2.91,6.48,6.48-2.91,6.48-6.48,6.48Z"/><path fill="url(#Ci2Qxa6DtmVe1jz96f9FFx)" d="m24,18.38c-3.1,0-5.62,2.52-5.62,5.62s2.52,5.62,5.62,5.62,5.62-2.52,5.62-5.62-2.52-5.62-5.62-5.62Zm0,12c-3.52,0-6.38-2.86-6.38-6.38s2.86-6.38,6.38-6.38,6.38,2.86,6.38,6.38-2.86,6.38-6.38,6.38Z"/></g><g><circle cx="31" cy="16" r="1" fill="url(#Ci2Qxa6DtmVe1jz96f9FFy)"/><circle cx="31" cy="16" r=".9" fill="url(#Ci2Qxa6DtmVe1jz96f9FFz)"/><circle cx="31" cy="16" r=".8" fill="url(#Ci2Qxa6DtmVe1jz96f9FFA)"/><circle cx="31" cy="16" r=".69" fill="url(#Ci2Qxa6DtmVe1jz96f9FFB)"/><circle cx="31" cy="16" r=".59" fill="url(#Ci2Qxa6DtmVe1jz96f9FFC)"/><circle cx="31" cy="16" r=".49" fill="url(#Ci2Qxa6DtmVe1jz96f9FFD)"/><circle cx="31" cy="16" r=".39" fill="url(#Ci2Qxa6DtmVe1jz96f9FFE)"/></g></svg>